<?xml version="1.0" standalone="no"?>
<!DOCTYPE svg PUBLIC "-//W3C//DTD SVG 20010904//EN"
 "http://www.w3.org/TR/2001/REC-SVG-20010904/DTD/svg10.dtd">
<svg version="1.0" xmlns="http://www.w3.org/2000/svg"
 width="342.000000pt" height="301.000000pt" viewBox="0 0 342.000000 301.000000"
 preserveAspectRatio="xMidYMid meet">

<g transform="translate(0.000000,301.000000) scale(0.100000,-0.100000)"
fill="#000000" stroke="none">
<path d="M487 2993 c-17 -12 -25 -23 -21 -33 29 -73 254 -742 254 -756 0 -11
6 -28 13 -39 8 -11 25 -54 39 -96 23 -67 24 -78 11 -95 -8 -10 -26 -38 -40
-62 l-26 -44 61 -61 c59 -60 61 -64 55 -102 -3 -22 -28 -77 -54 -121 l-49 -82
0 -120 0 -119 -360 -297 c-354 -293 -360 -298 -360 -334 0 -55 32 -516 36
-521 2 -2 66 3 141 13 l137 17 140 147 c78 81 171 179 209 218 l67 71 -51 133
c-38 96 -50 137 -43 148 6 8 32 34 60 58 l49 42 78 -88 78 -88 172 135 c95 74
182 144 195 156 l22 21 -2 409 -3 410 -248 172 c-136 95 -251 175 -254 179 -7
7 37 45 53 46 6 0 84 -43 173 -95 90 -52 167 -95 172 -95 5 0 9 67 9 150 l0
150 -152 0 -153 0 -73 128 c-279 484 -276 481 -335 445z"/>
<path d="M2855 2988 c-14 -20 -87 -143 -220 -373 -16 -28 -48 -84 -70 -123
l-40 -72 -152 0 -153 0 0 -150 c0 -82 4 -150 9 -150 5 0 71 36 147 81 205 119
189 113 224 92 17 -9 29 -21 28 -25 -2 -4 -115 -86 -253 -182 l-250 -173 -3
-411 -2 -410 52 -45 c29 -24 117 -94 194 -155 l141 -110 78 89 79 88 50 -43
c27 -23 54 -50 60 -58 7 -11 -5 -51 -42 -148 l-52 -132 117 -125 c65 -68 159
-167 208 -219 l90 -94 137 -17 c76 -9 140 -14 142 -12 4 5 36 466 36 521 0 36
-6 41 -359 333 l-359 296 -4 127 -3 127 -46 70 c-28 42 -50 88 -54 114 -7 43
-7 44 55 106 l63 63 -26 44 c-14 24 -32 52 -40 62 -13 18 -11 29 14 105 16 47
34 90 39 95 6 6 10 19 10 29 0 15 222 677 254 757 4 10 -4 21 -25 33 -40 23
-55 22 -74 -5z"/>
<path d="M1552 2111 c-7 -4 -40 -97 -73 -206 l-59 -198 0 -303 c0 -275 2 -306
19 -347 10 -24 27 -47 36 -51 23 -9 457 -7 471 2 6 4 21 26 33 49 20 40 21 56
21 346 l0 304 -55 184 c-30 101 -59 194 -65 207 -9 21 -13 22 -162 22 -84 0
-159 -4 -166 -9z m195 -439 c63 -91 102 -217 123 -392 15 -127 20 -117 -75
-161 l-85 -40 -85 40 c-95 44 -90 34 -75 161 21 175 60 301 123 392 17 27 34
48 37 48 3 0 20 -21 37 -48z"/>
<path d="M1218 886 c-27 -20 -25 -117 2 -141 18 -16 20 -31 20 -122 l0 -103
-80 0 -80 0 0 103 c0 91 2 106 20 122 12 11 20 31 20 52 0 31 -2 33 -20 23
-11 -6 -20 -21 -20 -34 0 -13 -9 -31 -20 -41 -18 -16 -20 -31 -20 -126 0 -138
1 -139 120 -139 119 0 120 1 120 139 0 94 -2 110 -20 126 -15 13 -20 33 -22
85 -3 63 -4 67 -20 56z"/>
<path d="M2180 832 c0 -56 -4 -72 -20 -87 -18 -16 -20 -31 -20 -126 0 -138 1
-139 120 -139 119 0 120 1 120 139 0 95 -2 110 -20 126 -11 10 -20 28 -20 41
0 13 -9 28 -20 34 -18 10 -20 8 -20 -23 0 -21 8 -41 20 -52 18 -16 20 -31 20
-122 l0 -103 -80 0 -80 0 0 103 c0 91 2 106 20 122 15 14 20 31 20 74 0 45 -4
59 -20 69 -19 12 -20 10 -20 -56z"/>
</g>
</svg>
